<svg xmlns="http://www.w3.org/2000/svg" version="1.1" xmlns:xlink="http://www.w3.org/1999/xlink" xmlns:svgjs="http://svgjs.dev/svgjs" viewBox="0 0 2400 800"><defs><linearGradient x1="50%" y1="0%" x2="50%" y2="100%" id="sssurf-grad"><stop stop-color="hsl(25, 91%, 58%)" stop-opacity="1" offset="0%"></stop><stop stop-color="hsl(265, 40%, 6%)" stop-opacity="1" offset="100%"></stop></linearGradient></defs><g fill="url(#sssurf-grad)" transform="matrix(1,0,0,1,0,0.537506103515625)"><path d="M 0 348.77017432339017 Q 900 626.4068623144627 1200 405.42176276013174 Q 2100 507.1793299849268 2400 273.9249790192434 L 2400 800 L 0 800 L 0 311.8691480937971 Z" transform="matrix(1,0,0,1,0,25)" opacity="0.05"></path><path d="M 0 348.77017432339017 Q 900 626.4068623144627 1200 405.42176276013174 Q 2100 507.1793299849268 2400 273.9249790192434 L 2400 800 L 0 800 L 0 311.8691480937971 Z" transform="matrix(1,0,0,1,0,50)" opacity="0.37"></path><path d="M 0 348.77017432339017 Q 900 626.4068623144627 1200 405.42176276013174 Q 2100 507.1793299849268 2400 273.9249790192434 L 2400 800 L 0 800 L 0 311.8691480937971 Z" transform="matrix(1,0,0,1,0,75)" opacity="0.68"></path><path d="M 0 348.77017432339017 Q 900 626.4068623144627 1200 405.42176276013174 Q 2100 507.1793299849268 2400 273.9249790192434 L 2400 800 L 0 800 L 0 311.8691480937971 Z" transform="matrix(1,0,0,1,0,100)" opacity="1.00"></path></g></svg>