<svg xmlns="http://www.w3.org/2000/svg" version="1.1" xmlns:xlink="http://www.w3.org/1999/xlink" xmlns:svgjs="http://svgjs.dev/svgjs" viewBox="0 0 2400 800" opacity="1"><defs><linearGradient x1="50%" y1="0%" x2="50%" y2="100%" id="sssurf-grad"><stop stop-color="hsl(218, 100%, 63%)" stop-opacity="1" offset="0%"></stop><stop stop-color="hsl(265, 40%, 6%)" stop-opacity="1" offset="100%"></stop></linearGradient></defs><g fill="url(#sssurf-grad)" transform="matrix(1,0,0,1,0,4.470184326171875)"><path d="M 0 266.0596309657127 Q 900 521.1322832915549 1200 421.10013370273526 Q 2100 588.6427451827902 2400 302.4051689265552 L 2400 800 L 0 800 L 0 294.3477239347141 Z" transform="matrix(1,0,0,1,0,25)" opacity="0.05"></path><path d="M 0 266.0596309657127 Q 900 521.1322832915549 1200 421.10013370273526 Q 2100 588.6427451827902 2400 302.4051689265552 L 2400 800 L 0 800 L 0 294.3477239347141 Z" transform="matrix(1,0,0,1,0,50)" opacity="0.37"></path><path d="M 0 266.0596309657127 Q 900 521.1322832915549 1200 421.10013370273526 Q 2100 588.6427451827902 2400 302.4051689265552 L 2400 800 L 0 800 L 0 294.3477239347141 Z" transform="matrix(1,0,0,1,0,75)" opacity="0.68"></path><path d="M 0 266.0596309657127 Q 900 521.1322832915549 1200 421.10013370273526 Q 2100 588.6427451827902 2400 302.4051689265552 L 2400 800 L 0 800 L 0 294.3477239347141 Z" transform="matrix(1,0,0,1,0,100)" opacity="1.00"></path></g></svg>