<svg xmlns="http://www.w3.org/2000/svg" version="1.1" xmlns:xlink="http://www.w3.org/1999/xlink" xmlns:svgjs="http://svgjs.dev/svgjs" viewBox="0 0 2400 800"><defs><linearGradient x1="50%" y1="0%" x2="50%" y2="100%" id="sssurf-grad"><stop stop-color="hsl(77,84%,60%)" stop-opacity="1" offset="0%"></stop><stop stop-color="hsl(265, 40%, 6%)" stop-opacity="1" offset="100%"></stop></linearGradient></defs><g fill="url(#sssurf-grad)" transform="matrix(1,0,0,1,0,-2.570648193359375)"><path d="M 0 280.14125092324116 Q 592.1277248273384 450 1200 394.2908999844345 Q 1901.0160452723574 450 2400 281.27617136638014 L 2400 800 L 0 800 L 0 374.13363709282606 Z" transform="matrix(1,0,0,1,0,25)" opacity="0.05"></path><path d="M 0 280.14125092324116 Q 592.1277248273384 450 1200 394.2908999844345 Q 1901.0160452723574 450 2400 281.27617136638014 L 2400 800 L 0 800 L 0 374.13363709282606 Z" transform="matrix(1,0,0,1,0,50)" opacity="0.37"></path><path d="M 0 280.14125092324116 Q 592.1277248273384 450 1200 394.2908999844345 Q 1901.0160452723574 450 2400 281.27617136638014 L 2400 800 L 0 800 L 0 374.13363709282606 Z" transform="matrix(1,0,0,1,0,75)" opacity="0.68"></path><path d="M 0 280.14125092324116 Q 592.1277248273384 450 1200 394.2908999844345 Q 1901.0160452723574 450 2400 281.27617136638014 L 2400 800 L 0 800 L 0 374.13363709282606 Z" transform="matrix(1,0,0,1,0,100)" opacity="1.00"></path></g></svg>