<svg xmlns="http://www.w3.org/2000/svg" version="1.1" xmlns:xlink="http://www.w3.org/1999/xlink" xmlns:svgjs="http://svgjs.dev/svgjs" viewBox="0 0 2400 800" opacity="1"><g fill="url(#sssurf-grad)" transform="matrix(1,0,0,1,-10.4755859375,345.75738525390625)"><path d="M-10,10C242.08333333333331,50.20833333333333,697.9166666666666,228.625,1200,203C1702.0833333333335,177.375,2097.9166666666665,-154.04166666666669,2400,-113C2702.0833333333335,-71.95833333333333,3254.1666666666665,188.95833333333331,2650,400C2045.8333333333335,611.0416666666667,156.25,795.8333333333334,-500,900" transform="matrix(1,0,0,1,0,25)" opacity="0.05"></path><path d="M-10,10C242.08333333333331,50.20833333333333,697.9166666666666,228.625,1200,203C1702.0833333333335,177.375,2097.9166666666665,-154.04166666666669,2400,-113C2702.0833333333335,-71.95833333333333,3254.1666666666665,188.95833333333331,2650,400C2045.8333333333335,611.0416666666667,156.25,795.8333333333334,-500,900" transform="matrix(1,0,0,1,0,50)" opacity="0.37"></path><path d="M-10,10C242.08333333333331,50.20833333333333,697.9166666666666,228.625,1200,203C1702.0833333333335,177.375,2097.9166666666665,-154.04166666666669,2400,-113C2702.0833333333335,-71.95833333333333,3254.1666666666665,188.95833333333331,2650,400C2045.8333333333335,611.0416666666667,156.25,795.8333333333334,-500,900" transform="matrix(1,0,0,1,0,75)" opacity="0.68"></path><path d="M-10,10C242.08333333333331,50.20833333333333,697.9166666666666,228.625,1200,203C1702.0833333333335,177.375,2097.9166666666665,-154.04166666666669,2400,-113C2702.0833333333335,-71.95833333333333,3254.1666666666665,188.95833333333331,2650,400C2045.8333333333335,611.0416666666667,156.25,795.8333333333334,-500,900" transform="matrix(1,0,0,1,0,100)" opacity="1.00"></path></g><defs><linearGradient x1="50%" y1="0%" x2="50%" y2="100%" id="sssurf-grad"><stop stop-color="hsl(156, 81%, 69%)" stop-opacity="1" offset="0%"></stop><stop stop-color="hsl(265, 40%, 6%)" stop-opacity="1" offset="100%"></stop></linearGradient></defs></svg>