<svg xmlns="http://www.w3.org/2000/svg" version="1.1" xmlns:xlink="http://www.w3.org/1999/xlink" xmlns:svgjs="http://svgjs.dev/svgjs" viewBox="0 0 2400 800"><defs><linearGradient x1="50%" y1="0%" x2="50%" y2="100%" id="sssurf-grad"><stop stop-color="hsl(258, 100%, 52%)" stop-opacity="1" offset="0%"></stop><stop stop-color="hsl(265, 40%, 6%)" stop-opacity="1" offset="100%"></stop></linearGradient></defs><g fill="url(#sssurf-grad)" transform="matrix(1,0,0,1,0,-8.511016845703125)"><path d="M 0 373.37599994944395 Q 900 634.197463145789 1200 408.18513036619754 Q 2100 562.7400467477245 2400 292.0220002768657 L 2400 800 L 0 800 L 0 307.79029837118105 Z" transform="matrix(1,0,0,1,0,25)" opacity="0.05"></path><path d="M 0 373.37599994944395 Q 900 634.197463145789 1200 408.18513036619754 Q 2100 562.7400467477245 2400 292.0220002768657 L 2400 800 L 0 800 L 0 307.79029837118105 Z" transform="matrix(1,0,0,1,0,50)" opacity="0.37"></path><path d="M 0 373.37599994944395 Q 900 634.197463145789 1200 408.18513036619754 Q 2100 562.7400467477245 2400 292.0220002768657 L 2400 800 L 0 800 L 0 307.79029837118105 Z" transform="matrix(1,0,0,1,0,75)" opacity="0.68"></path><path d="M 0 373.37599994944395 Q 900 634.197463145789 1200 408.18513036619754 Q 2100 562.7400467477245 2400 292.0220002768657 L 2400 800 L 0 800 L 0 307.79029837118105 Z" transform="matrix(1,0,0,1,0,100)" opacity="1.00"></path></g></svg>