<svg xmlns="http://www.w3.org/2000/svg" version="1.1" xmlns:xlink="http://www.w3.org/1999/xlink" xmlns:svgjs="http://svgjs.dev/svgjs" viewBox="0 0 2400 800" opacity="1"><defs><linearGradient x1="50%" y1="0%" x2="50%" y2="100%" id="sssurf-grad"><stop stop-color="hsl(195, 72%, 63%)" stop-opacity="1" offset="0%"></stop><stop stop-color="hsl(265, 40%, 6%)" stop-opacity="1" offset="100%"></stop></linearGradient></defs><g fill="url(#sssurf-grad)" transform="matrix(1,0,0,1,0,0.25201416015625)"><path d="M 0 401.96156873757445 Q 404.3548072485041 450 1200 381.42468242879494 Q 1623.5935270553932 450 2400 410.1295090698422 L 2400 800 L 0 800 L 0 274.49598621639916 Z" transform="matrix(1,0,0,1,0,25)" opacity="0.05"></path><path d="M 0 401.96156873757445 Q 404.3548072485041 450 1200 381.42468242879494 Q 1623.5935270553932 450 2400 410.1295090698422 L 2400 800 L 0 800 L 0 274.49598621639916 Z" transform="matrix(1,0,0,1,0,50)" opacity="0.37"></path><path d="M 0 401.96156873757445 Q 404.3548072485041 450 1200 381.42468242879494 Q 1623.5935270553932 450 2400 410.1295090698422 L 2400 800 L 0 800 L 0 274.49598621639916 Z" transform="matrix(1,0,0,1,0,75)" opacity="0.68"></path><path d="M 0 401.96156873757445 Q 404.3548072485041 450 1200 381.42468242879494 Q 1623.5935270553932 450 2400 410.1295090698422 L 2400 800 L 0 800 L 0 274.49598621639916 Z" transform="matrix(1,0,0,1,0,100)" opacity="1.00"></path></g></svg>