<svg xmlns="http://www.w3.org/2000/svg" version="1.1" xmlns:xlink="http://www.w3.org/1999/xlink" xmlns:svgjs="http://svgjs.dev/svgjs" viewBox="0 0 2400 800"><defs><linearGradient x1="50%" y1="0%" x2="50%" y2="100%" id="sssurf-grad"><stop stop-color="hsl(267, 90%, 72%)" stop-opacity="1" offset="0%"></stop><stop stop-color="0e0915" stop-opacity="1" offset="100%"></stop></linearGradient></defs><g fill="url(#sssurf-grad)" transform="matrix(1,0,0,1,0,7.87994384765625)"><path d="M 0 329.99344784130477 Q 900 471.59304342691973 1200 421.9767945733571 Q 2100 534.7714963358582 2400 259.24012657634864 L 2400 800 L 0 800 L 0 419.9581300700191 Z" transform="matrix(1,0,0,1,0,25)" opacity="0.05"></path><path d="M 0 329.99344784130477 Q 900 471.59304342691973 1200 421.9767945733571 Q 2100 534.7714963358582 2400 259.24012657634864 L 2400 800 L 0 800 L 0 419.9581300700191 Z" transform="matrix(1,0,0,1,0,50)" opacity="0.37"></path><path d="M 0 329.99344784130477 Q 900 471.59304342691973 1200 421.9767945733571 Q 2100 534.7714963358582 2400 259.24012657634864 L 2400 800 L 0 800 L 0 419.9581300700191 Z" transform="matrix(1,0,0,1,0,75)" opacity="0.68"></path><path d="M 0 329.99344784130477 Q 900 471.59304342691973 1200 421.9767945733571 Q 2100 534.7714963358582 2400 259.24012657634864 L 2400 800 L 0 800 L 0 419.9581300700191 Z" transform="matrix(1,0,0,1,0,100)" opacity="1.00"></path></g></svg>