<svg xmlns="http://www.w3.org/2000/svg" version="1.1" xmlns:xlink="http://www.w3.org/1999/xlink" xmlns:svgjs="http://svgjs.dev/svgjs" viewBox="0 0 2400 800" opacity="1"><defs><linearGradient x1="50%" y1="0%" x2="50%" y2="100%" id="sssurf-grad"><stop stop-color="hsl(267, 90%, 72%)" stop-opacity="1" offset="0%"></stop><stop stop-color="hsl(265, 40%, 6%)" stop-opacity="1" offset="100%"></stop></linearGradient></defs><g fill="url(#sssurf-grad)" transform="matrix(1,0,0,1,0,-1.150543212890625)"><path d="M 0 277.3010926187986 Q 673.4597589721122 450 1200 300.8503727216347 Q 1924.532947510454 450 2400 301.4818712299185 L 2400 800 L 0 800 L 0 359.61044422880775 Z" transform="matrix(1,0,0,1,0,25)" opacity="0.05"></path><path d="M 0 277.3010926187986 Q 673.4597589721122 450 1200 300.8503727216347 Q 1924.532947510454 450 2400 301.4818712299185 L 2400 800 L 0 800 L 0 359.61044422880775 Z" transform="matrix(1,0,0,1,0,50)" opacity="0.37"></path><path d="M 0 277.3010926187986 Q 673.4597589721122 450 1200 300.8503727216347 Q 1924.532947510454 450 2400 301.4818712299185 L 2400 800 L 0 800 L 0 359.61044422880775 Z" transform="matrix(1,0,0,1,0,75)" opacity="0.68"></path><path d="M 0 277.3010926187986 Q 673.4597589721122 450 1200 300.8503727216347 Q 1924.532947510454 450 2400 301.4818712299185 L 2400 800 L 0 800 L 0 359.61044422880775 Z" transform="matrix(1,0,0,1,0,100)" opacity="1.00"></path></g></svg>