<svg xmlns="http://www.w3.org/2000/svg" version="1.1" xmlns:xlink="http://www.w3.org/1999/xlink" xmlns:svgjs="http://svgjs.dev/svgjs" viewBox="0 0 2400 800" opacity="1"><defs><linearGradient x1="50%" y1="0%" x2="50%" y2="100%" id="sssurf-grad"><stop stop-color="hsl(1, 100%, 68%)" stop-opacity="1" offset="0%"></stop><stop stop-color="hsl(265, 40%, 6%)" stop-opacity="1" offset="100%"></stop></linearGradient></defs><g fill="url(#sssurf-grad)" transform="matrix(1,0,0,1,-10.4755859375,389.5851745605469)"><path d="M-10,10C242.08333333333331,39.166666666666664,697.9166666666666,193.54166666666669,1200,150C1702.0833333333335,106.45833333333333,2097.9166666666665,-251.08333333333331,2400,-199C2702.0833333333335,-146.91666666666669,3254.1666666666665,171.04166666666669,2650,400C2045.8333333333335,628.9583333333333,156.25,795.8333333333334,-500,900" transform="matrix(1,0,0,1,0,25)" opacity="0.05"></path><path d="M-10,10C242.08333333333331,39.166666666666664,697.9166666666666,193.54166666666669,1200,150C1702.0833333333335,106.45833333333333,2097.9166666666665,-251.08333333333331,2400,-199C2702.0833333333335,-146.91666666666669,3254.1666666666665,171.04166666666669,2650,400C2045.8333333333335,628.9583333333333,156.25,795.8333333333334,-500,900" transform="matrix(1,0,0,1,0,50)" opacity="0.37"></path><path d="M-10,10C242.08333333333331,39.166666666666664,697.9166666666666,193.54166666666669,1200,150C1702.0833333333335,106.45833333333333,2097.9166666666665,-251.08333333333331,2400,-199C2702.0833333333335,-146.91666666666669,3254.1666666666665,171.04166666666669,2650,400C2045.8333333333335,628.9583333333333,156.25,795.8333333333334,-500,900" transform="matrix(1,0,0,1,0,75)" opacity="0.68"></path><path d="M-10,10C242.08333333333331,39.166666666666664,697.9166666666666,193.54166666666669,1200,150C1702.0833333333335,106.45833333333333,2097.9166666666665,-251.08333333333331,2400,-199C2702.0833333333335,-146.91666666666669,3254.1666666666665,171.04166666666669,2650,400C2045.8333333333335,628.9583333333333,156.25,795.8333333333334,-500,900" transform="matrix(1,0,0,1,0,100)" opacity="1.00"></path></g></svg>