<svg xmlns="http://www.w3.org/2000/svg" version="1.1" xmlns:xlink="http://www.w3.org/1999/xlink" xmlns:svgjs="http://svgjs.dev/svgjs" viewBox="0 0 2400 800" opacity="1"><defs><linearGradient x1="50%" y1="0%" x2="50%" y2="100%" id="sssurf-grad"><stop stop-color="hsl(231, 96%, 74%)" stop-opacity="1" offset="0%"></stop><stop stop-color="hsl(265, 40%, 6%)" stop-opacity="1" offset="100%"></stop></linearGradient></defs><g fill="url(#sssurf-grad)" transform="matrix(1,0,0,1,-10.4755859375,384.8362731933594)"><path d="M-10,10C242.08333333333331,46.458333333333336,697.9166666666666,226.875,1200,185C1702.0833333333335,143.125,2097.9166666666665,-235.79166666666669,2400,-191C2702.0833333333335,-146.20833333333331,3254.1666666666665,172.70833333333331,2650,400C2045.8333333333335,627.2916666666667,156.25,795.8333333333334,-500,900" transform="matrix(1,0,0,1,0,25)" opacity="0.05"></path><path d="M-10,10C242.08333333333331,46.458333333333336,697.9166666666666,226.875,1200,185C1702.0833333333335,143.125,2097.9166666666665,-235.79166666666669,2400,-191C2702.0833333333335,-146.20833333333331,3254.1666666666665,172.70833333333331,2650,400C2045.8333333333335,627.2916666666667,156.25,795.8333333333334,-500,900" transform="matrix(1,0,0,1,0,50)" opacity="0.37"></path><path d="M-10,10C242.08333333333331,46.458333333333336,697.9166666666666,226.875,1200,185C1702.0833333333335,143.125,2097.9166666666665,-235.79166666666669,2400,-191C2702.0833333333335,-146.20833333333331,3254.1666666666665,172.70833333333331,2650,400C2045.8333333333335,627.2916666666667,156.25,795.8333333333334,-500,900" transform="matrix(1,0,0,1,0,75)" opacity="0.68"></path><path d="M-10,10C242.08333333333331,46.458333333333336,697.9166666666666,226.875,1200,185C1702.0833333333335,143.125,2097.9166666666665,-235.79166666666669,2400,-191C2702.0833333333335,-146.20833333333331,3254.1666666666665,172.70833333333331,2650,400C2045.8333333333335,627.2916666666667,156.25,795.8333333333334,-500,900" transform="matrix(1,0,0,1,0,100)" opacity="1.00"></path></g></svg>