<svg xmlns="http://www.w3.org/2000/svg" version="1.1" xmlns:xlink="http://www.w3.org/1999/xlink" xmlns:svgjs="http://svgjs.dev/svgjs" viewBox="0 0 2400 800" opacity="1"><defs><linearGradient x1="50%" y1="0%" x2="50%" y2="100%" id="sssurf-grad"><stop stop-color="hsl(0, 0%, 91%)" stop-opacity="1" offset="0%"></stop><stop stop-color="hsl(265, 40%, 6%)" stop-opacity="1" offset="100%"></stop></linearGradient></defs><g fill="url(#sssurf-grad)" transform="matrix(1,0,0,1,0,-33.612579345703125)"><path d="M 0 323.7967190290191 Q 900 631.3452255324096 1200 317.225151336319 Q 2100 484.6912762545005 2400 322.3784320698064 L 2400 800 L 0 800 L 0 323.56728590885103 Z" transform="matrix(1,0,0,1,0,25)" opacity="0.05"></path><path d="M 0 323.7967190290191 Q 900 631.3452255324096 1200 317.225151336319 Q 2100 484.6912762545005 2400 322.3784320698064 L 2400 800 L 0 800 L 0 323.56728590885103 Z" transform="matrix(1,0,0,1,0,50)" opacity="0.29"></path><path d="M 0 323.7967190290191 Q 900 631.3452255324096 1200 317.225151336319 Q 2100 484.6912762545005 2400 322.3784320698064 L 2400 800 L 0 800 L 0 323.56728590885103 Z" transform="matrix(1,0,0,1,0,75)" opacity="0.53"></path><path d="M 0 323.7967190290191 Q 900 631.3452255324096 1200 317.225151336319 Q 2100 484.6912762545005 2400 322.3784320698064 L 2400 800 L 0 800 L 0 323.56728590885103 Z" transform="matrix(1,0,0,1,0,100)" opacity="0.76"></path><path d="M 0 323.7967190290191 Q 900 631.3452255324096 1200 317.225151336319 Q 2100 484.6912762545005 2400 322.3784320698064 L 2400 800 L 0 800 L 0 323.56728590885103 Z" transform="matrix(1,0,0,1,0,125)" opacity="1.00"></path></g></svg>