<svg xmlns="http://www.w3.org/2000/svg" version="1.1" xmlns:xlink="http://www.w3.org/1999/xlink" xmlns:svgjs="http://svgjs.dev/svgjs" viewBox="0 0 2400 800"><defs><linearGradient x1="50%" y1="0%" x2="50%" y2="100%" id="sssurf-grad"><stop stop-color="hsl(0, 0%, 99%)" stop-opacity="1" offset="0%"></stop><stop stop-color="hsl(265, 40%, 6%)" stop-opacity="1" offset="100%"></stop></linearGradient></defs><g fill="url(#sssurf-grad)" transform="matrix(1,0,0,1,0,-7.312408447265625)"><path d="M 0 407.0962112828271 Q 900 575.4486669007632 1200 291.0428661034032 Q 2100 621.8886684702935 2400 400.3153259186336 L 2400 800 L 0 800 L 0 289.624775241721 Z" transform="matrix(1,0,0,1,0,25)" opacity="0.05"></path><path d="M 0 407.0962112828271 Q 900 575.4486669007632 1200 291.0428661034032 Q 2100 621.8886684702935 2400 400.3153259186336 L 2400 800 L 0 800 L 0 289.624775241721 Z" transform="matrix(1,0,0,1,0,50)" opacity="0.37"></path><path d="M 0 407.0962112828271 Q 900 575.4486669007632 1200 291.0428661034032 Q 2100 621.8886684702935 2400 400.3153259186336 L 2400 800 L 0 800 L 0 289.624775241721 Z" transform="matrix(1,0,0,1,0,75)" opacity="0.68"></path><path d="M 0 407.0962112828271 Q 900 575.4486669007632 1200 291.0428661034032 Q 2100 621.8886684702935 2400 400.3153259186336 L 2400 800 L 0 800 L 0 289.624775241721 Z" transform="matrix(1,0,0,1,0,100)" opacity="1.00"></path></g></svg>